<?xml version="1.0" standalone="no"?>
<!DOCTYPE svg PUBLIC "-//W3C//DTD SVG 20010904//EN" "http://www.w3.org/TR/2001/REC-SVG-20010904/DTD/svg10.dtd">
<svg version="1.0" xmlns="http://www.w3.org/2000/svg" width="512.000000pt" height="512.000000pt"
    viewBox="0 0 512.000000 512.000000" preserveAspectRatio="xMidYMid meet">

    <g transform="translate(0.000000,512.000000) scale(0.100000,-0.100000)" fill="#dd3737" stroke="none">
        <path d="M350 2560 l0 -2560 625 0 625 0 0 1010 0 1010 68 0 c96 0 189 -17
247 -45 54 -26 167 -151 281 -310 127 -177 497 -740 959 -1462 l130 -203 738
0 c405 0 737 2 737 5 0 2 -100 170 -221 372 -552 917 -805 1313 -976 1530 -61
78 -218 236 -282 285 l-33 25 48 18 c515 188 830 534 934 1028 133 628 -101
1280 -571 1593 -239 159 -496 224 -1003 254 -102 6 -632 10 -1242 10 l-1064 0
0 -2560z m2335 1425 c155 -43 239 -118 285 -256 19 -56 21 -80 18 -189 -6
-153 -27 -215 -98 -293 -122 -133 -260 -157 -932 -157 l-358 0 0 462 0 461
513 -6 c428 -5 522 -9 572 -22z" />
    </g>
</svg>